<group>
ampeg_attack=0.100000
ampeg_release=0.500000

<region>
sample=Harmonica-Hohner-Special20-F/Sustains/HandVib/Hohner-Special20-F_HandVib_F3.wav
pitch_keycenter=53
lokey=53.0
hikey=55.0
volume=-3.016269

<region>
sample=Harmonica-Hohner-Special20-F/Sustains/HandVib/Hohner-Special20-F_HandVib_A3.wav
pitch_keycenter=57
lokey=56.0
hikey=58.0
volume=1.233406

<region>
sample=Harmonica-Hohner-Special20-F/Sustains/HandVib/Hohner-Special20-F_HandVib_C4.wav
pitch_keycenter=60
lokey=59.0
hikey=62.0
volume=3.674840

<region>
sample=Harmonica-Hohner-Special20-F/Sustains/HandVib/Hohner-Special20-F_HandVib_F4.wav
pitch_keycenter=65
lokey=63.0
hikey=67.0
volume=-2.141897

<region>
sample=Harmonica-Hohner-Special20-F/Sustains/HandVib/Hohner-Special20-F_HandVib_A4.wav
pitch_keycenter=69
lokey=68.0
hikey=70.0
volume=4.108568

<region>
sample=Harmonica-Hohner-Special20-F/Sustains/HandVib/Hohner-Special20-F_HandVib_C5.wav
pitch_keycenter=72
lokey=71.0
hikey=74.0
volume=6.000000

<region>
sample=Harmonica-Hohner-Special20-F/Sustains/HandVib/Hohner-Special20-F_HandVib_F5.wav
pitch_keycenter=77
lokey=75.0
hikey=79.0
volume=-1.401224

<region>
sample=Harmonica-Hohner-Special20-F/Sustains/HandVib/Hohner-Special20-F_HandVib_A5.wav
pitch_keycenter=81
lokey=80.0
hikey=82.0
volume=3.976601

<region>
sample=Harmonica-Hohner-Special20-F/Sustains/HandVib/Hohner-Special20-F_HandVib_C6.wav
pitch_keycenter=84
lokey=83.0
hikey=86.0
offset=782
volume=-5.385704

<region>
sample=Harmonica-Hohner-Special20-F/Sustains/HandVib/Hohner-Special20-F_HandVib_F6.wav
pitch_keycenter=89
lokey=87.0
hikey=90.0
volume=2.859392

